<svg xmlns="http://www.w3.org/2000/svg" viewBox="0 0 512 504" width="512" height="504" role="img" aria-label="BERANI">
  <defs>
    <linearGradient id="flameBlue" x1="0%" y1="0%" x2="100%" y2="100%">
      <stop offset="0%" stop-color="#1D4ED8" />
      <stop offset="100%" stop-color="#2563EB" />
    </linearGradient>
    <linearGradient id="flameCyan" x1="0%" y1="0%" x2="100%" y2="100%">
      <stop offset="0%" stop-color="#06B6D4" />
      <stop offset="100%" stop-color="#38BDF8" />
    </linearGradient>
    <linearGradient id="shieldFrame" x1="0%" y1="0%" x2="100%" y2="100%">
      <stop offset="0%" stop-color="#2563EB" />
      <stop offset="100%" stop-color="#0284C7" />
    </linearGradient>
    <filter id="badgeShadow" x="-20%" y="-20%" width="140%" height="140%">
      <feDropShadow dx="0" dy="8" stdDeviation="14" flood-color="#2563EB" flood-opacity="0.14" />
    </filter>
  </defs>

  <rect width="512" height="504" rx="100" fill="#FFFFFF" />

  <g transform="translate(256, 172) scale(0.95) translate(-256, -210)" filter="url(#badgeShadow)">
    <path d="M256 68 L374 124 L374 250 C374 320 324 370 256 398 C188 370 138 320 138 250 L138 124 Z"
          fill="#F0F7FF"
          stroke="url(#shieldFrame)"
          stroke-width="17"
          stroke-linejoin="round"
          stroke-linecap="round" />
    <path d="M256 140 C230 180 206 230 216 270 C222 292 242 310 256 318 C242 296 242 256 256 228 Z"
          fill="url(#flameBlue)" />
    <path d="M256 118 C274 162 304 214 294 260 C288 288 268 310 256 318 C268 296 268 244 256 206 Z"
          fill="url(#flameCyan)" />
    <circle cx="256" cy="264" r="14" fill="#FFFFFF" />
    <circle cx="256" cy="264" r="8" fill="url(#flameCyan)" />
  </g>

  <text x="256" y="420"
        font-family="'Plus Jakarta Sans', 'Inter', -apple-system, sans-serif"
        font-size="36"
        font-weight="800"
        letter-spacing="9"
        fill="#1E3A8A"
        text-anchor="middle">BERANI</text>

  <text x="256" y="456"
        font-family="'Plus Jakarta Sans', 'Inter', -apple-system, sans-serif"
        font-size="11.5"
        font-weight="700"
        letter-spacing="3"
        fill="#0284C7"
        text-anchor="middle">BELAJAR • EDUKASI • AMAN</text>
</svg>
